<svg viewBox="0 0 331.14 162.25" xmlns="http://www.w3.org/2000/svg"><path d="m37 129.12a86 86 0 0 1 -20-2.42 63.21 63.21 0 0 1 -17-6.37l1.08-25h5.21l5.57 12.39a46.57 46.57 0 0 0 5.21 8.62 16.93 16.93 0 0 0 7.18 5.21 26.3 26.3 0 0 0 5.84 1.71 38.94 38.94 0 0 0 6.19.45q10.95 0 17.33-5.66t6.38-15q0-8.44-4.4-13.29t-14.1-9.34l-7.36-3.23q-15.13-6.61-23.8-15.41t-8.71-23.35q0-10.78 5.47-18.43a35 35 0 0 1 15.18-11.74q9.73-4.13 22.63-4.13a61.73 61.73 0 0 1 17.86 2.51 52.47 52.47 0 0 1 14.64 6.83l-1.26 22.27h-5.21l-6.64-13.47a32.41 32.41 0 0 0 -5.48-8.53 12 12 0 0 0 -6.38-3.32q-2.16-.36-3.68-.54a36.82 36.82 0 0 0 -4-.18 23.48 23.48 0 0 0 -15.17 5.12q-6.38 5.12-6.37 14.1 0 8.62 4.85 14t14 9.52l8.08 3.41q17.42 7.54 25 16.07t7.54 21.82q0 15.8-11.94 25.59t-33.74 9.79" fill="#d49647"/><path d="m91.77 126.06v-3.41l2.69-.72q3.59-1.08 4.85-3.23a12.67 12.67 0 0 0 1.44-5.75v-43.36q0-4.75-.18-9.79a10.27 10.27 0 0 0 -1.35-5.66q-1.34-2.06-4.94-2.78l-2.52-.54v-3.23l31.43-10.42 2.15 2-.54 25.5v48.49a10.76 10.76 0 0 0 1.35 5.75 8.24 8.24 0 0 0 4.76 3.23l2 .54v3.41zm20.65-98.76a14.38 14.38 0 0 1 -10.06-3.77 12.32 12.32 0 0 1 -4.13-9.53 12.25 12.25 0 0 1 4.13-9.61 15.58 15.58 0 0 1 20.11 0 12.27 12.27 0 0 1 4.14 9.61 12.34 12.34 0 0 1 -4.13 9.52 14.38 14.38 0 0 1 -10.06 3.77" fill="#d49647"/><path d="m141.15 126.06v-3.41l2.69-.72q5.93-2 5.93-9 0-6.1.09-12.3t.09-12.3v-68.22a10.3 10.3 0 0 0 -1.26-5.66q-1.26-1.89-4.85-2.78l-2.69-.67v-3.46l31.42-7.54 2.34 1.62-.72 25.32v86a12.45 12.45 0 0 0 1.53 5.84 7.42 7.42 0 0 0 4.76 3.14l2.51.72v3.41z" fill="#d49647"/><path d="m185.88 126.06v-3.41l2.52-.72q6.1-1.79 6.1-9v-86l-.72-25.32 2.34-1.61 31.43 7.54v3.46l-2.34.72a8.79 8.79 0 0 0 -5 2.78 8.92 8.92 0 0 0 -1.44 5.48v93q0 7 6.11 8.8l2.69.9v3.41z" fill="#d49647"/><path d="m255.15 125.39-32.5-44.9 31.79-29.49a7.18 7.18 0 0 0 2.69-4.4q.36-2.42-3.05-3.32l-2.87-.72v-3.37h28v3.41l-5.21 1.26a19 19 0 0 0 -6.46 3q-2.52 1.88-5.93 4.94l-19.75 18.5 30.53 41.84a41.11 41.11 0 0 0 5.21 5.84 19.36 19.36 0 0 0 6.29 3.5l1.79.54v3.41z" fill="#d49647"/><path d="m316.06 128.58a14.7 14.7 0 0 1 -10.69-4.31 14 14 0 0 1 -4.4-10.42 14.84 14.84 0 0 1 4.4-10.77 15 15 0 0 1 21.37 0 14.84 14.84 0 0 1 4.4 10.77 14 14 0 0 1 -4.4 10.42 14.7 14.7 0 0 1 -10.68 4.31" fill="#d49647"/><g fill="#d49647"><path d="m30.91 161.83-1.26-3.42h-6.85l-1.24 3.42h-2.42l6.23-16.09h1.93l6.16 16.09zm-7.38-5.4h5.4l-2.69-7.33z"/><path d="m36.21 145.75h4.34c4.09 0 8.64 2.16 8.64 8s-4.5 8.11-8.87 8.11h-4.11zm3.93 2h-1.72v12.13h.76c4.6 0 7.68-1.45 7.68-5.93 0-4.07-2.48-6.2-6.71-6.2"/><path d="m58.55 161.83h-1.93l-6.16-16.08h2.55l4.66 12.73h.03l4.66-12.73h2.41z"/><path d="m74.19 162.11a8.32 8.32 0 1 1 8.27-8.32 8.22 8.22 0 0 1 -8.27 8.32m0-14.66a6.36 6.36 0 1 0 5.93 6.34 6 6 0 0 0 -5.93-6.34"/><path d="m94 162.11c-4.8 0-8.64-3.24-8.64-8.32a8.39 8.39 0 0 1 8.64-8.32 8.17 8.17 0 0 1 4.32 1.24l-1 1.7a6.24 6.24 0 0 0 -3.29-1 6.12 6.12 0 0 0 -6.3 6.34 6 6 0 0 0 6.3 6.34 6.23 6.23 0 0 0 3.5-1.09l1.17 1.63a8.36 8.36 0 0 1 -4.7 1.48"/><path d="m112 161.83-1.26-3.42h-6.84l-1.24 3.42h-2.41l6.23-16.09h1.93l6.16 16.09zm-7.38-5.4h5.38l-2.69-7.33z"/><path d="m120.81 147.72v14.11h-2.21v-14.11h-4.04v-1.97h10.29v1.97z"/><path d="m127.61 161.83v-16.08h9.65v1.97h-7.45v4.83h7.45v1.98h-7.45v5.33h7.45v1.97z"/><path d="m152.08 161.83-8.83-11.99v11.99h-2.2v-16.08h1.93l8.84 11.99v-11.99h2.21v16.08z"/><path d="m176.87 162.25-2.87-2.53a6 6 0 0 1 -5.05 2.39 5.3 5.3 0 0 1 -5.31-5 4.93 4.93 0 0 1 2.71-4.37 4.94 4.94 0 0 1 -1.54-3.35c0-2.34 2.32-3.93 4.55-3.93a4.12 4.12 0 0 1 4.14 2.9l-1.93.55a2.15 2.15 0 0 0 -2.3-1.52 2.18 2.18 0 0 0 -2.37 2.11c0 1.24 1 2.16 2.46 3.47l-1.24 1.47-.42-.37a3.17 3.17 0 0 0 1.5 6.09 4 4 0 0 0 3.4-1.7l-1.86-1.68 1.26-1.45 6.14 5.45z"/><path d="m195.11 161.83h-1.54l-5.4-13.58v13.58h-2.21v-16.08h3.5l4.89 12.57 4.96-12.57h3.5v16.08h-2.21v-13.58z"/><path d="m207.28 161.83v-16.08h9.65v1.97h-7.44v4.83h7.44v1.98h-7.44v5.33h7.44v1.97z"/><path d="m220.72 145.75h4.34c4.09 0 8.64 2.16 8.64 8s-4.51 8.11-8.87 8.11h-4.12zm3.93 2h-1.72v12.13h.76c4.6 0 7.68-1.45 7.68-5.93 0-4.07-2.48-6.2-6.71-6.2"/><path d="m237.38 145.75h2.21v16.09h-2.21z"/><path d="m254.11 161.83-1.26-3.42h-6.85l-1.24 3.42h-2.41l6.23-16.09h1.93l6.16 16.09zm-7.38-5.4h5.4l-2.69-7.33z"/><path d="m262.91 147.72v14.11h-2.21v-14.11h-4.04v-1.97h10.29v1.97z"/><path d="m276.71 162.11a8.32 8.32 0 1 1 8.27-8.32 8.22 8.22 0 0 1 -8.27 8.32m0-14.66a6.36 6.36 0 1 0 5.93 6.34 6 6 0 0 0 -5.93-6.34"/><path d="m297.34 161.83-4.83-6.8h-1.65v6.8h-2.21v-16.08h4.78c2.46 0 5.49 1.29 5.49 4.62a4.53 4.53 0 0 1 -3.93 4.53l5.1 6.94zm-4-14.11h-2.46v5.33h2c2.14 0 3.72-.78 3.72-2.62 0-1.63-1.31-2.71-3.26-2.71"/><path d="m307.82 147.45c-1.7 0-2.87.81-2.87 2.23s1.58 1.93 3.35 2.55c2.28.81 4.87 1.86 4.87 4.87 0 3.61-3.19 5-5.65 5a7.69 7.69 0 0 1 -5.81-2.41l1.56-1.47a5.44 5.44 0 0 0 4.27 1.91c1.65 0 3.29-.81 3.29-2.78 0-1.77-1.72-2.39-3.58-3-2.18-.76-4.53-1.84-4.53-4.41 0-3 2.23-4.44 4.85-4.44a7.9 7.9 0 0 1 5 1.65l-1.36 1.61a5.3 5.3 0 0 0 -3.38-1.29"/></g></svg>